<svg xmlns="http://www.w3.org/2000/svg" viewBox="0 0 280 50" fill="none">
  <!-- Fingerprint icon -->
  <g stroke="#00B4A0" stroke-width="3" stroke-linecap="round" fill="none">
    <!-- Outer curves -->
    <path d="M8 25c0-10 8-18 18-18"/>
    <path d="M8 25c0 10 8 18 18 18"/>
    <!-- Middle curves -->
    <path d="M14 25c0-6 5-11 11-11"/>
    <path d="M14 25c0 6 5 11 11 11"/>
    <!-- Inner curves -->
    <path d="M20 25c0-3 2-5 5-5"/>
    <path d="M20 25c0 3 2 5 5 5"/>
    <!-- Right side curves -->
    <path d="M30 10c6 3 10 9 10 15"/>
    <path d="M30 40c6-3 10-9 10-15"/>
    <path d="M34 15c4 2 6 6 6 10"/>
    <path d="M34 35c4-2 6-6 6-10"/>
  </g>
  <!-- Text -->
  <text x="55" y="33" font-family="system-ui, -apple-system, sans-serif" font-size="24" font-weight="600" fill="#1e3a5f">Concept Carton</text>
</svg>